<?xml version="1.0" standalone="no"?>
<!DOCTYPE svg PUBLIC "-//W3C//DTD SVG 20010904//EN"
 "http://www.w3.org/TR/2001/REC-SVG-20010904/DTD/svg10.dtd">
<svg version="1.0" xmlns="http://www.w3.org/2000/svg"
 width="800.000000pt" height="800.000000pt" viewBox="0 0 800.000000 800.000000"
 preserveAspectRatio="xMidYMid meet">

<g transform="translate(0.000000,800.000000) scale(0.100000,-0.100000)"
fill="#000000" stroke="none">
<path d="M0 4000 l0 -4000 4000 0 4000 0 0 4000 0 4000 -4000 0 -4000 0 0
-4000z m4090 2095 c0 -26 93 -115 120 -115 33 0 46 -10 55 -40 9 -28 103 -123
143 -144 75 -40 100 -104 65 -169 -9 -18 -23 -66 -30 -107 -8 -41 -17 -87 -20
-103 -3 -15 0 -34 7 -41 14 -18 4 -40 -34 -75 -14 -13 -29 -40 -32 -60 -5 -24
-19 -47 -45 -69 -21 -18 -41 -43 -45 -55 -9 -30 -57 -107 -67 -107 -4 0 -5 15
-2 33 4 18 8 51 9 74 2 23 8 48 14 55 24 30 39 135 32 227 -8 94 -13 108 -42
129 -10 7 -18 17 -18 22 0 11 -135 142 -146 141 -9 0 -29 -59 -38 -111 -5 -32
-2 -47 12 -65 14 -18 19 -42 20 -95 1 -39 5 -77 9 -83 4 -7 8 -51 10 -99 1
-69 -1 -88 -12 -88 -7 0 -23 -13 -35 -30 -12 -16 -28 -30 -37 -30 -21 0 -68
-36 -94 -71 -20 -28 -20 -31 -5 -63 9 -19 16 -53 16 -76 0 -52 13 -76 44 -84
21 -5 26 -14 32 -54 3 -26 13 -55 21 -64 8 -9 18 -47 23 -83 15 -122 42 -104
66 43 l14 87 -25 23 c-33 30 -32 40 10 58 36 15 50 25 114 80 69 60 164 134
173 134 9 0 12 -28 9 -72 -1 -18 4 -30 18 -38 25 -13 29 -74 8 -105 -16 -24
-37 -94 -37 -122 0 -11 -8 -31 -19 -44 -10 -13 -26 -50 -35 -82 -13 -44 -23
-60 -41 -67 -14 -5 -25 -14 -25 -19 0 -5 -13 -13 -28 -19 -29 -10 -31 -14
-131 -207 -13 -26 -24 -78 -32 -147 -7 -60 -16 -108 -20 -108 -5 0 -9 6 -9 14
0 8 -4 16 -10 18 -5 2 -13 32 -17 68 -5 51 -18 87 -60 170 -66 128 -97 169
-134 182 -16 5 -30 15 -30 21 -1 7 -2 17 -3 24 0 7 -21 35 -46 64 -63 72 -72
90 -54 110 7 8 16 47 20 87 6 61 4 72 -10 78 -12 5 -15 12 -9 28 4 11 8 41 9
66 4 82 16 160 25 166 5 3 9 17 9 32 0 15 11 63 25 107 31 101 32 128 1 152
-16 13 -21 24 -16 34 9 15 5 168 -5 209 -5 21 4 35 59 88 35 34 69 62 76 62
23 0 110 83 119 114 5 17 22 63 38 101 16 39 33 82 37 98 7 28 36 38 36 12z
m1076 -193 c-8 -21 -11 -59 -9 -87 5 -53 -19 -132 -58 -186 -10 -15 -16 -34
-13 -42 3 -9 -3 -35 -14 -59 -18 -42 -18 -45 -2 -66 10 -12 21 -38 25 -59 4
-21 13 -51 20 -68 7 -16 16 -46 19 -65 3 -19 11 -70 18 -112 12 -76 13 -78 40
-78 24 0 28 -4 26 -27 -1 -16 -12 -41 -25 -56 -14 -18 -23 -42 -23 -63 0 -20
-9 -56 -19 -82 -20 -49 -36 -114 -46 -194 -9 -71 -8 -72 -116 75 l-50 69 -2
169 c-2 116 -7 173 -15 181 -16 16 -15 43 3 79 19 37 15 39 -86 42 l-74 2 3
-58 c3 -48 7 -60 23 -64 13 -4 19 -14 19 -34 0 -30 -19 -79 -30 -79 -13 0
-154 -150 -180 -192 -33 -53 -59 -77 -61 -57 -3 37 4 85 13 97 6 7 9 40 6 80
-3 37 -1 78 4 92 7 19 3 29 -22 55 -36 37 -37 49 -6 118 21 49 23 65 21 189
-1 74 -6 148 -9 165 -4 19 -3 34 3 38 7 4 11 48 11 112 l0 107 31 -30 c17 -16
42 -45 55 -66 13 -20 41 -46 63 -59 42 -23 67 -71 55 -103 -3 -9 -2 -22 4 -29
5 -6 13 -31 17 -55 l7 -43 36 7 c57 10 56 5 53 154 0 30 8 43 63 95 35 33 66
70 70 82 4 14 19 26 34 29 32 8 66 37 93 81 28 44 41 42 25 -5z m499 -108 c11
-27 23 -50 27 -52 4 -2 5 -77 2 -168 -4 -101 -2 -164 3 -164 6 0 18 -19 29
-42 10 -24 21 -45 24 -48 20 -19 39 -77 50 -150 7 -47 16 -92 21 -101 5 -9 11
-66 13 -125 4 -87 10 -121 30 -169 27 -64 32 -95 16 -95 -24 0 -129 94 -145
131 -10 21 -24 39 -32 39 -7 0 -16 6 -19 14 -3 8 -14 16 -24 19 -14 4 -21 18
-26 48 -9 54 -45 94 -109 116 -61 22 -68 47 -32 101 28 42 43 122 28 149 -14
24 -51 139 -51 158 0 8 -4 15 -10 15 -5 0 -10 -9 -10 -21 0 -11 -13 -32 -29
-47 -33 -31 -65 -88 -56 -102 6 -9 -46 -50 -65 -50 -17 0 -90 -42 -90 -52 0
-4 -7 -8 -16 -8 -11 0 -14 6 -8 23 16 51 22 92 17 118 -3 18 4 46 22 83 15 30
25 67 24 83 -1 15 7 44 19 63 22 36 24 41 26 73 1 21 54 54 131 82 28 10 57
26 67 36 9 11 26 19 39 19 13 0 37 16 58 39 20 22 41 38 46 37 6 -1 19 -25 30
-52z m1113 50 c18 -5 22 -13 22 -43 0 -20 -9 -55 -21 -76 -30 -58 -49 -112
-64 -180 -10 -49 -10 -68 1 -105 20 -68 25 -110 14 -110 -5 0 -16 13 -24 29
-9 16 -28 40 -44 53 -16 14 -33 34 -36 46 -7 21 -26 31 -26 15 0 -5 -3 -41 -6
-81 -7 -83 1 -111 57 -190 21 -30 41 -68 44 -85 4 -18 25 -68 48 -113 l41 -81
-22 -42 c-12 -23 -22 -48 -22 -55 0 -8 -12 -38 -27 -68 -57 -110 -67 -154 -84
-356 -12 -133 -15 -146 -40 -179 -25 -30 -28 -41 -23 -81 3 -26 8 -54 11 -62
3 -8 11 -55 18 -105 8 -49 21 -115 30 -145 31 -101 30 -109 -3 -60 -17 25 -60
81 -96 125 -36 44 -95 124 -130 177 -35 53 -76 104 -90 113 -25 17 -64 81 -54
90 2 2 20 -9 40 -25 29 -24 40 -28 64 -21 l29 7 2 175 c1 96 -3 204 -8 241
-12 73 -8 84 52 173 l32 47 -22 28 c-11 16 -21 33 -21 37 0 4 -11 21 -24 38
l-23 29 -34 -28 c-19 -16 -39 -41 -45 -55 -6 -15 -25 -42 -43 -61 -35 -39 -36
-43 -20 -102 11 -39 9 -48 -14 -93 -14 -28 -44 -72 -66 -100 -22 -27 -52 -69
-67 -92 -27 -45 -27 -45 -134 -48 -46 -1 -105 -32 -119 -61 -6 -13 -17 -24
-24 -24 -7 0 -24 -18 -36 -41 -39 -68 -35 -35 5 48 21 43 50 125 65 183 23 92
30 107 55 120 15 8 33 19 39 23 5 4 18 13 27 20 10 7 22 33 26 58 5 28 20 58
35 75 15 16 27 32 27 36 0 5 15 8 34 8 37 0 49 19 35 55 -4 11 -8 38 -8 61 -1
34 4 44 29 62 21 16 30 31 30 50 0 16 5 33 11 39 12 12 -75 81 -112 88 -20 4
-48 31 -49 47 0 3 -23 17 -51 29 -54 25 -70 49 -82 126 -6 36 -3 46 19 73 15
17 39 37 55 46 16 8 29 20 29 28 0 7 25 30 55 51 30 20 55 41 55 45 0 7 61 40
74 40 10 0 -9 -32 -49 -84 -19 -25 -35 -52 -35 -60 0 -7 -9 -25 -20 -39 -22
-28 -22 -29 40 -59 31 -14 38 -15 62 -2 40 21 90 9 111 -24 8 -15 36 -47 61
-71 l45 -44 -6 59 c-3 34 -13 70 -24 86 -10 15 -19 34 -19 42 0 9 -8 31 -17
50 -16 34 -16 37 3 57 10 11 33 27 51 34 25 10 33 20 33 38 0 34 15 44 90 57
42 7 86 24 124 47 49 30 84 44 126 52 3 0 15 -2 28 -5z m-5440 -66 c23 -11 42
-23 42 -27 0 -8 82 -33 155 -48 35 -8 41 -13 49 -45 7 -27 16 -38 33 -43 14
-3 36 -17 49 -30 23 -24 24 -26 9 -54 -8 -17 -15 -38 -15 -47 0 -9 -10 -33
-22 -53 -15 -24 -24 -54 -25 -91 l-2 -55 47 51 c26 28 55 63 64 77 14 21 24
24 55 22 21 -2 50 -6 65 -10 30 -8 98 18 98 36 0 6 -9 22 -20 36 -11 14 -17
30 -14 35 4 5 -5 22 -18 36 -29 31 -68 87 -68 97 0 22 101 -47 190 -131 14
-13 42 -39 63 -58 30 -28 37 -41 37 -72 0 -79 -44 -144 -97 -144 -6 0 -25 -16
-40 -35 -15 -19 -33 -35 -39 -35 -6 0 -36 -16 -67 -37 -53 -35 -55 -37 -50
-72 8 -48 19 -68 43 -76 27 -8 35 -46 21 -99 -14 -57 -7 -74 32 -78 40 -4 97
-75 97 -121 0 -44 17 -62 81 -88 33 -13 44 -35 65 -134 9 -44 37 -120 61 -169
48 -99 47 -96 34 -96 -5 0 -13 10 -16 21 -10 29 -92 112 -132 133 -20 10 -57
16 -96 16 -63 0 -65 1 -90 38 -24 35 -35 50 -83 110 -12 15 -34 49 -49 76 -27
49 -29 81 -9 151 4 15 -5 30 -30 55 -20 19 -41 49 -46 65 -6 17 -25 41 -41 54
-29 22 -31 23 -49 6 -21 -19 -70 -101 -70 -117 0 -5 13 -28 29 -51 57 -84 62
-100 50 -159 -6 -29 -11 -62 -10 -73 0 -11 0 -40 0 -65 -1 -25 -2 -98 -3 -162
l-1 -118 29 -10 c24 -8 33 -7 50 9 12 10 31 24 44 30 l23 12 -15 -35 c-8 -20
-31 -50 -52 -68 -20 -18 -65 -75 -100 -128 -63 -94 -119 -168 -170 -224 -15
-17 -36 -45 -47 -63 -11 -19 -21 -32 -23 -31 -3 3 13 58 38 133 11 33 35 176
44 267 6 51 3 62 -18 90 -21 28 -26 52 -37 163 -21 225 -34 278 -97 396 -13
26 -24 54 -24 62 0 9 -9 31 -20 50 l-20 34 43 79 c24 43 47 94 50 113 4 18 23
56 43 84 57 79 64 104 57 196 -6 82 -16 100 -32 58 -5 -13 -21 -31 -35 -40
-14 -10 -32 -33 -40 -52 -16 -37 -36 -47 -36 -18 0 9 7 46 16 81 14 55 15 74
4 121 -16 73 -40 142 -56 161 -11 13 -33 87 -34 113 0 13 44 25 75 20 17 -3
49 -14 73 -25z m1100 -20 c25 -24 52 -48 58 -54 7 -6 34 -19 60 -29 27 -9 53
-21 58 -25 4 -5 27 2 50 15 63 35 111 46 133 29 10 -7 28 -14 40 -14 22 0 126
60 138 80 4 6 11 8 16 5 5 -4 -5 -24 -21 -46 -66 -87 -86 -116 -104 -154 -10
-22 -21 -46 -25 -54 -4 -8 -31 -27 -60 -42 -29 -16 -68 -42 -87 -59 -19 -16
-39 -30 -45 -30 -13 0 -61 35 -98 71 -43 42 -65 42 -115 -2 l-45 -40 15 -41
c8 -23 13 -63 12 -88 l-3 -45 56 -5 c32 -3 65 -12 75 -22 11 -9 36 -21 58 -27
37 -10 41 -8 100 37 33 25 75 59 91 74 50 46 58 38 20 -20 -42 -62 -59 -86
-79 -107 -10 -11 -29 -38 -43 -60 -42 -67 -64 -85 -99 -85 -18 0 -36 5 -39 10
-4 6 -14 10 -23 8 -21 -3 -92 21 -92 31 0 8 -44 31 -60 31 -20 0 -47 -75 -46
-129 1 -53 2 -54 36 -66 23 -8 36 -19 38 -33 3 -20 -29 -91 -67 -147 -12 -16
-21 -33 -21 -37 0 -16 30 -7 40 12 9 16 17 18 60 13 48 -6 50 -5 106 46 64 59
89 62 114 16 9 -16 25 -32 36 -34 10 -2 25 -8 33 -14 26 -21 86 -37 121 -31
l35 6 -45 -41 c-40 -36 -85 -69 -169 -123 -53 -33 -83 -32 -133 7 -50 38 -81
44 -104 20 -9 -8 -26 -15 -39 -15 -13 0 -35 -12 -49 -27 -24 -25 -25 -26 -50
-9 -15 9 -39 42 -55 74 -15 31 -38 77 -51 102 -25 49 -31 104 -30 268 1 97 0
104 -19 109 -12 3 -21 8 -21 12 0 3 21 44 47 91 25 47 55 103 66 124 13 24 22
62 23 100 2 34 6 69 9 78 5 12 -2 19 -28 27 -19 6 -43 9 -53 5 -10 -3 7 18 38
48 41 40 58 65 63 91 4 22 16 42 31 52 14 9 34 36 46 60 12 25 28 45 35 45 7
0 35 -19 61 -42z m800 -21 c13 -12 30 -38 38 -57 21 -48 71 -99 121 -122 23
-10 45 -23 48 -28 3 -6 21 -10 38 -10 19 -1 48 -12 72 -30 22 -16 50 -35 62
-41 13 -7 27 -27 32 -45 5 -19 16 -41 25 -49 19 -20 11 -74 -15 -95 -34 -28
-149 -216 -149 -243 0 -20 -22 -38 -34 -28 -6 5 -35 6 -63 4 -52 -5 -68 -18
-38 -30 9 -3 27 -27 40 -54 14 -26 34 -50 45 -54 11 -4 28 -19 37 -33 9 -15
30 -44 46 -64 16 -21 26 -38 22 -38 -4 0 -2 -7 5 -15 7 -9 11 -18 8 -20 -7 -8
-119 61 -148 91 -14 14 -47 40 -75 57 -27 18 -55 43 -61 57 -7 14 -31 63 -53
109 l-41 85 22 33 c13 19 41 43 64 53 57 26 67 42 59 88 -5 29 -2 42 9 52 9 7
16 21 16 31 0 22 -57 89 -75 89 -7 0 -23 14 -36 31 -63 83 -77 85 -98 19 -11
-33 -11 -50 -3 -73 6 -17 7 -38 3 -50 -5 -12 -12 -45 -15 -72 -6 -43 -4 -54
14 -75 18 -20 20 -32 15 -60 -11 -54 -13 -154 -3 -167 19 -24 -26 -89 -131
-190 -58 -56 -108 -100 -111 -97 -2 3 -3 20 -2 38 2 19 -2 52 -8 74 -10 37 -8
43 15 66 28 28 32 58 11 75 -10 9 -13 38 -11 119 1 60 5 114 9 120 4 6 0 22
-8 34 -12 18 -13 34 -5 73 5 28 9 59 7 70 -1 11 2 30 6 43 4 12 2 38 -4 57
-16 49 4 109 44 133 17 11 44 43 60 73 16 30 40 68 53 85 l24 32 46 -14 c26
-8 58 -24 71 -37z m2048 -1381 c13 -34 -74 -143 -160 -200 -58 -39 -99 -47
-238 -47 -51 0 -89 5 -109 15 -18 9 -37 16 -44 16 -19 0 -44 33 -51 67 -5 27
-2 34 31 56 l38 26 47 -50 c40 -42 80 -64 80 -43 0 10 -44 43 -57 44 -7 0 -13
5 -13 11 0 13 53 2 58 -12 2 -5 8 -7 13 -4 5 4 7 -8 5 -25 -3 -23 2 -33 17
-41 25 -14 98 -5 112 14 5 8 25 21 42 31 40 20 65 56 72 104 7 40 3 38 134 50
10 1 20 -4 23 -12z m118 -71 c-19 -29 -20 -29 -30 -13 -4 7 -3 8 4 4 8 -5 12
0 12 13 0 12 7 21 15 21 14 0 13 -3 -1 -25z m-2546 -35 c12 -12 22 -25 22 -31
0 -5 14 -7 31 -4 17 3 37 0 45 -6 8 -6 14 -8 14 -3 0 5 6 2 13 -7 7 -9 17 -16
22 -17 6 -1 12 -12 14 -24 7 -51 60 -45 141 16 63 47 89 51 106 17 11 -22 10
-27 -14 -45 -15 -11 -29 -23 -32 -27 -3 -3 -22 -12 -42 -20 -21 -7 -38 -19
-38 -26 0 -6 -17 -15 -37 -18 -21 -4 -47 -9 -58 -13 -11 -3 -23 -5 -27 -4 -5
1 -8 -3 -8 -8 0 -5 8 -10 18 -11 14 0 14 -2 -3 -9 -20 -8 -105 -4 -155 6 -25
5 -131 53 -140 64 -3 3 -12 6 -20 8 -8 2 -17 8 -18 13 -2 5 -10 16 -18 23 -8
8 -14 19 -14 25 0 6 -6 8 -14 5 -10 -4 -15 1 -14 13 0 10 -3 27 -7 37 -9 21
-4 19 49 -17 l29 -21 -6 30 c-9 48 19 65 119 72 11 1 30 -7 42 -18z m2552 -16
c0 -17 -22 -14 -28 4 -2 7 3 12 12 12 9 0 16 -7 16 -16z m-1960 -148 c0 -19
-14 -89 -31 -156 -17 -68 -28 -133 -25 -146 4 -14 0 -37 -10 -55 -12 -25 -14
-52 -11 -132 3 -56 9 -117 12 -135 5 -23 2 -40 -9 -58 -10 -14 -21 -51 -26
-82 -8 -46 -7 -58 5 -65 19 -10 19 -25 -1 -83 -22 -65 -25 -117 -24 -380 1
-140 -2 -234 -8 -238 -6 -3 -21 44 -37 112 -33 145 -50 207 -82 300 -14 41
-23 82 -20 93 3 10 1 19 -5 19 -6 0 -7 7 -4 16 3 9 -2 35 -12 58 -31 69 -47
147 -32 156 10 6 10 15 1 40 -6 18 -11 44 -11 57 0 13 -4 31 -10 41 -19 34
-70 165 -66 169 9 9 65 -27 71 -46 7 -22 43 -57 51 -49 8 8 -19 59 -82 154
-56 85 -110 192 -101 201 3 3 24 -9 46 -27 22 -18 44 -29 50 -25 6 3 21 -1 33
-9 12 -9 31 -16 42 -16 11 0 30 -12 42 -27 l22 -28 7 30 c11 51 13 54 53 74
68 35 106 95 132 211 7 30 15 58 17 63 9 16 23 -6 23 -37z m-1484 -58 c29 -61
44 -83 58 -81 13 1 25 -16 46 -60 34 -77 110 -179 126 -173 7 3 26 -11 43 -30
17 -18 34 -34 39 -34 5 0 15 -7 22 -16 8 -8 22 -20 33 -26 21 -11 21 -2 2 45
-5 11 -3 17 6 17 14 0 62 -66 92 -125 19 -38 51 -145 45 -151 -3 -2 3 -35 13
-72 22 -78 27 -236 7 -230 -6 2 -20 29 -30 59 -22 63 -67 99 -136 107 -36 4
-43 8 -39 23 5 19 -1 22 -38 20 -11 -1 -42 17 -69 39 -26 22 -54 40 -62 40 -8
0 -14 5 -14 10 0 6 9 10 20 10 11 0 20 5 20 10 0 6 -4 10 -8 10 -5 0 -34 25
-65 55 -31 30 -59 55 -62 55 -3 0 -5 -14 -5 -30 0 -17 -6 -46 -14 -65 -11 -25
-11 -35 -3 -38 15 -5 -7 -69 -37 -110 l-21 -29 25 -19 c67 -52 120 -101 120
-110 0 -6 -8 -6 -20 1 -12 6 -20 7 -20 1 0 -5 21 -19 46 -32 34 -16 60 -41 96
-90 48 -65 85 -99 109 -99 6 0 9 7 5 15 -9 24 19 5 98 -64 38 -34 74 -62 80
-62 6 -1 16 -2 21 -3 6 -1 36 -26 67 -56 31 -30 77 -68 103 -84 42 -26 46 -31
40 -58 -4 -17 -16 -51 -27 -76 -17 -37 -18 -49 -9 -65 9 -14 9 -22 1 -32 -8
-10 -10 -32 -5 -64 8 -62 -10 -78 -25 -21 -9 35 -14 39 -26 30 -8 -7 -14 -18
-14 -25 0 -7 -7 -18 -15 -25 -8 -7 -15 -19 -15 -27 0 -8 -12 -30 -27 -50 -15
-19 -28 -50 -29 -68 -2 -18 -10 -51 -19 -72 -16 -37 -15 -145 1 -187 3 -9 1
-16 -5 -16 -6 0 -11 4 -11 9 0 5 -12 24 -26 41 -15 17 -24 34 -20 37 3 3 1 12
-5 20 -7 7 -19 28 -28 45 -10 22 -33 41 -67 58 -28 14 -71 43 -96 65 -26 23
-67 52 -92 65 -34 17 -45 28 -41 40 6 20 -78 130 -99 130 -6 0 -30 18 -51 40
-30 31 -37 43 -26 49 10 7 7 17 -14 50 -15 22 -30 41 -34 41 -3 0 -25 18 -49
39 -28 26 -40 44 -36 55 4 9 -6 31 -23 53 -16 21 -33 44 -37 51 -12 20 -24
122 -16 127 14 8 31 -23 32 -57 1 -41 54 -109 103 -133 20 -9 54 -40 76 -70
41 -55 119 -108 143 -99 7 3 25 -13 40 -35 18 -26 41 -44 65 -52 38 -13 56
-32 56 -63 0 -10 10 -25 23 -33 21 -15 22 -14 22 10 0 15 16 41 39 67 50 55
58 88 24 101 -13 5 -27 9 -31 9 -4 0 -16 13 -27 29 -46 65 -88 102 -142 128
-39 17 -52 27 -40 30 23 6 21 20 -5 34 -13 7 -35 25 -50 40 -33 32 -155 119
-168 119 -17 0 -62 52 -51 59 20 13 -105 149 -181 197 -20 13 -39 28 -43 34
-3 5 -16 10 -27 10 -20 0 -20 1 4 23 14 13 29 34 33 47 4 13 14 30 21 37 7 8
18 29 23 48 5 19 18 47 28 62 11 15 30 50 43 76 27 59 18 77 -30 57 -23 -10
-34 -10 -43 -1 -6 6 -7 11 -1 11 18 0 155 142 150 156 -3 7 2 30 10 50 8 20
14 54 13 74 -2 28 4 48 24 77 15 22 27 44 27 50 0 6 7 24 15 39 8 16 12 37 9
47 -3 10 0 17 8 17 8 0 32 -37 54 -82z m1774 22 c0 -27 5 -52 10 -55 6 -4 8
-14 5 -24 -7 -23 19 -143 39 -172 19 -29 74 -74 102 -83 14 -4 26 -1 34 9 19
23 43 19 37 -6 -8 -28 17 -175 37 -222 9 -21 14 -42 11 -47 -9 -15 22 -182 44
-232 20 -46 20 -47 1 -85 -11 -21 -29 -59 -40 -85 -12 -25 -28 -52 -36 -58
-21 -19 -18 -61 6 -67 11 -3 20 -6 20 -7 0 -18 -53 -96 -99 -146 -58 -63 -75
-103 -48 -113 8 -3 6 -13 -10 -35 -46 -62 -75 -144 -82 -227 -7 -87 -24 -108
-29 -35 -2 25 -9 59 -17 77 -8 17 -15 36 -15 43 0 18 -130 160 -146 160 -8 0
-14 4 -14 8 0 5 -10 14 -23 21 -20 11 -52 69 -43 78 1 2 22 -3 44 -11 33 -12
42 -12 42 -2 0 20 -52 63 -92 76 -47 14 -74 51 -83 112 -6 38 -4 48 10 55 14
8 15 14 6 32 -10 18 -6 31 24 86 38 68 55 81 55 43 -1 -86 1 -92 49 -147 26
-31 58 -78 71 -106 13 -27 32 -60 43 -72 11 -12 21 -36 23 -53 5 -40 22 -72
36 -64 5 4 7 19 4 35 -4 21 0 35 14 49 12 12 20 34 20 53 0 17 7 54 15 80 14
48 14 50 -12 83 -28 37 -26 46 10 50 12 1 25 3 30 3 13 2 7 31 -7 31 -8 0 -38
18 -67 40 -30 22 -63 40 -74 40 -47 1 -124 37 -173 81 l-52 47 30 58 c21 42
28 67 24 87 -3 15 -1 34 6 41 6 8 18 43 27 78 20 79 34 107 78 155 19 21 30
40 25 41 -16 6 -12 21 14 55 43 58 59 101 66 177 8 83 25 135 40 125 5 -3 10
-28 10 -55z m1769 -175 c0 -85 5 -171 10 -192 6 -21 9 -63 9 -93 -1 -35 5 -67
15 -87 15 -28 15 -33 3 -33 -8 0 -24 14 -36 30 -32 45 -33 45 -71 -55 -6 -16
-13 -55 -15 -85 -9 -158 -19 -215 -35 -212 -27 4 -33 -73 -15 -188 6 -38 14
-238 15 -374 0 -21 -5 -48 -11 -60 -7 -11 -13 -34 -14 -51 -2 -16 -7 -48 -13
-70 -6 -22 -11 -57 -11 -78 0 -50 -16 -39 -24 16 -4 23 -18 65 -32 92 -14 28
-27 70 -28 95 -5 56 -26 140 -36 140 -8 0 -60 104 -60 121 0 7 8 5 22 -7 l22
-19 -17 27 c-9 15 -28 38 -42 52 -15 15 -25 36 -25 55 0 39 -9 61 -25 61 -8 0
-20 21 -28 48 -37 117 -66 187 -81 190 -22 5 -20 -21 4 -96 23 -70 21 -85 -29
-222 -36 -99 -35 -96 -16 -80 21 17 20 -8 -1 -38 -9 -13 -18 -42 -20 -65 -3
-23 -10 -55 -17 -72 -7 -17 -12 -73 -12 -127 1 -54 0 -98 -1 -98 -5 0 -33 101
-39 140 -4 25 -20 85 -37 135 -19 55 -26 91 -20 93 13 4 5 32 -13 47 -18 16
-71 136 -80 180 l-7 40 26 -28 c14 -15 29 -27 34 -27 10 0 32 67 32 97 0 12 7
37 16 58 8 21 13 43 10 51 -6 15 21 92 41 115 15 18 17 43 4 67 -6 11 -5 38 3
72 9 38 9 64 3 85 -6 16 -11 36 -13 43 -2 7 -15 17 -29 22 -30 11 -33 30 -5
30 27 0 53 60 55 129 1 49 -3 61 -48 129 -27 41 -58 83 -70 93 -12 9 -19 21
-14 25 11 12 66 -19 120 -66 32 -28 47 -37 47 -26 0 9 4 16 9 16 11 0 111
-197 111 -220 0 -26 11 -50 22 -50 6 0 8 7 5 15 -4 8 -2 17 3 20 14 9 20 -46
12 -113 -7 -53 -5 -68 10 -93 12 -20 24 -29 36 -25 22 7 56 -42 107 -156 21
-48 40 -86 42 -84 2 1 -6 38 -17 82 -12 45 -20 107 -20 144 3 163 2 178 -21
182 -18 3 -15 7 22 33 46 32 129 114 129 128 0 4 -4 5 -10 2 -5 -3 -10 -1 -10
4 0 6 5 11 10 11 6 0 28 17 49 38 40 39 73 102 86 160 15 72 25 24 24 -123z
m-1051 98 c1 -27 15 -86 32 -133 24 -70 33 -85 51 -85 11 0 29 -12 40 -25 30
-39 110 -210 104 -220 -3 -6 -15 -10 -26 -10 -20 0 -27 -34 -9 -45 6 -3 10
-15 10 -26 0 -39 16 -16 49 71 21 58 39 90 48 90 12 0 14 -7 8 -27 -3 -16 -10
-84 -13 -153 -7 -113 -10 -131 -40 -191 -17 -37 -32 -72 -32 -79 0 -20 -50
-104 -83 -137 -29 -31 -29 -33 -10 -33 36 0 34 -13 -11 -74 -43 -57 -69 -108
-80 -156 -3 -14 -16 -38 -28 -53 -13 -16 -37 -46 -54 -67 -17 -21 -37 -52 -44
-69 -7 -17 -18 -31 -24 -31 -13 0 -106 188 -106 215 0 25 -58 123 -80 135 -10
6 -20 25 -23 47 -7 53 -30 127 -41 135 -6 4 -5 13 3 22 10 12 17 13 34 4 21
-11 21 -10 6 13 -23 35 -31 77 -19 99 6 11 7 20 2 20 -15 0 -71 364 -59 377 3
2 14 -12 25 -32 27 -44 37 -44 52 0 6 19 29 56 51 82 48 57 78 113 72 131 -3
8 11 30 32 50 69 69 132 149 139 175 10 42 22 32 24 -20z m1764 -50 c15 -7 35
-25 44 -38 9 -14 21 -25 26 -25 6 0 31 -17 57 -39 25 -21 56 -43 69 -50 38
-20 26 -33 -23 -25 -41 6 -45 4 -45 -14 0 -11 7 -25 15 -32 8 -7 15 -18 15
-24 0 -6 18 -33 40 -60 22 -26 40 -52 40 -58 0 -17 84 -128 97 -128 7 0 -6
-17 -29 -37 -59 -53 -86 -82 -141 -152 -58 -75 -74 -111 -49 -112 14 0 13 -3
-5 -16 -13 -8 -23 -22 -23 -29 0 -8 -6 -14 -13 -14 -10 0 -126 -108 -203 -190
-27 -28 -32 -52 -9 -44 32 13 12 -8 -40 -41 -30 -19 -60 -45 -66 -58 -7 -12
-20 -28 -31 -35 -10 -7 -18 -21 -18 -31 0 -21 -47 -71 -66 -71 -32 0 -7 -52
49 -99 20 -18 37 -42 37 -52 0 -21 1 -22 24 -13 9 3 16 17 16 30 0 30 20 74
34 74 18 1 61 42 82 78 10 17 24 32 31 32 27 0 93 57 117 102 27 47 68 97 96
114 25 15 75 97 76 124 2 59 5 70 19 70 11 0 15 -12 15 -49 0 -37 -9 -66 -35
-116 -18 -36 -32 -72 -29 -79 5 -12 -40 -74 -73 -101 -20 -17 -42 -80 -36
-104 4 -18 -5 -33 -43 -69 -49 -47 -66 -70 -103 -136 -14 -25 -17 -36 -8 -40
7 -3 -2 -16 -23 -33 -19 -15 -65 -58 -101 -95 -36 -38 -71 -68 -76 -68 -15 0
-73 -61 -73 -78 0 -7 -5 -23 -12 -35 -7 -12 -12 -26 -13 -32 0 -19 -39 -95
-48 -95 -4 0 -5 5 -2 10 4 6 6 41 6 80 0 52 -6 81 -24 117 -13 26 -22 55 -20
63 2 8 -15 35 -37 59 -22 25 -40 49 -40 55 0 7 -8 19 -17 28 -50 47 -70 85
-96 185 l-27 105 47 55 c27 31 63 75 81 100 18 24 37 41 42 38 4 -3 43 33 86
80 74 82 100 102 88 70 -21 -53 72 39 99 99 14 30 40 71 60 92 19 22 38 49 41
62 4 12 32 49 63 82 42 45 53 64 48 80 -3 11 -10 20 -15 20 -16 0 -52 69 -45
89 3 12 -1 31 -11 46 -9 14 -17 39 -16 56 1 37 -10 37 -39 -3 -13 -17 -39 -47
-56 -66 -38 -39 -42 -56 -13 -47 25 8 27 -13 3 -22 -10 -4 -36 -26 -58 -50
-34 -37 -55 -48 -97 -52 -4 -1 -7 -11 -5 -23 1 -15 -4 -23 -18 -26 -69 -12
-121 -66 -139 -145 -6 -28 -16 -51 -21 -50 -6 1 -13 30 -17 64 -4 34 -9 68
-12 74 -2 7 0 32 5 56 6 23 12 75 14 113 6 91 29 178 63 240 30 53 49 58 44
12 l-4 -30 39 35 c21 18 50 51 63 72 13 20 29 36 34 34 5 -2 28 19 50 47 82
100 197 136 288 89z m-3409 -105 c8 -18 17 -51 20 -74 4 -22 24 -87 46 -145
24 -62 36 -108 30 -113 -5 -6 -3 -16 4 -25 8 -9 18 -32 24 -51 32 -101 64
-175 76 -178 16 -3 84 -142 94 -191 5 -26 2 -37 -12 -47 -13 -10 -15 -17 -7
-26 5 -7 18 -37 28 -66 9 -30 28 -68 43 -84 16 -20 28 -49 32 -82 3 -28 14
-84 23 -124 9 -41 13 -78 10 -83 -6 -11 -31 19 -54 65 -8 16 -32 47 -52 68
-21 22 -45 52 -55 68 -9 16 -24 31 -32 32 -9 2 -38 48 -66 103 -45 89 -53 100
-84 108 -32 8 -33 10 -27 45 6 38 -8 107 -23 117 -5 2 -17 -7 -26 -22 -16 -24
-16 -27 -2 -38 14 -10 13 -18 -13 -68 -38 -77 -133 -182 -156 -173 -13 5 -15
14 -10 39 4 17 9 75 12 127 2 52 6 142 9 198 3 57 11 123 19 147 18 52 12 81
-20 89 -21 6 -23 11 -18 34 4 15 12 34 19 42 7 8 16 26 20 40 4 14 16 41 26
60 11 19 19 40 19 47 0 6 15 43 34 82 18 38 36 79 39 91 7 28 15 25 30 -12z"/>
<path d="M2985 4150 c20 -22 31 -20 22 5 -4 8 -14 15 -23 15 -16 0 -16 -2 1
-20z"/>
<path d="M3780 3525 c0 -8 -9 -24 -20 -35 -11 -11 -20 -24 -20 -29 0 -4 -12
-20 -26 -34 l-26 -26 29 -25 c15 -14 37 -26 48 -26 21 0 60 -43 88 -95 29 -55
108 -105 167 -105 41 0 43 11 11 59 -30 44 -70 81 -131 119 -19 12 -31 22 -26
22 5 0 4 6 -1 13 -6 6 -13 20 -16 30 -5 14 -2 16 18 11 18 -4 25 -2 25 9 0 18
-75 113 -96 121 -22 9 -24 8 -24 -9z"/>
<path d="M4375 3443 c-10 -32 -25 -67 -35 -78 -10 -11 -20 -32 -24 -47 -3 -15
-15 -30 -26 -33 -26 -8 -25 -17 5 -45 14 -13 25 -31 25 -40 0 -9 4 -20 9 -25
19 -21 51 -129 51 -173 l0 -47 20 42 c10 23 19 50 20 60 0 10 2 55 3 100 l2
82 47 48 c52 53 52 52 -4 125 -16 19 -28 39 -28 45 0 10 -32 43 -42 43 -3 0
-13 -26 -23 -57z"/>
<path d="M6085 3220 c-3 -5 -2 -10 4 -10 5 0 13 5 16 10 3 6 2 10 -4 10 -5 0
-13 -4 -16 -10z"/>
</g>
</svg>
